<?xml version="1.0" encoding="UTF-8"?>
<!DOCTYPE svg PUBLIC "-//W3C//DTD SVG 1.1//EN" "http://www.w3.org/Graphics/SVG/1.1/DTD/svg11.dtd">
<svg xmlns="http://www.w3.org/2000/svg" version="1.1" width="1250px" height="172px" style="shape-rendering:geometricPrecision; text-rendering:geometricPrecision; image-rendering:optimizeQuality; fill-rule:evenodd; clip-rule:evenodd" xmlns:xlink="http://www.w3.org/1999/xlink">
<g><path style="opacity:0.996" fill="#a31534" d="M -0.5,-0.5 C 2.83333,-0.5 6.16667,-0.5 9.5,-0.5C 48.3048,14.7163 87.6382,28.883 127.5,42C 194.304,63.4136 262.804,73.5802 333,72.5C 390.538,70.9352 448.038,68.4352 505.5,65C 543.008,64.2076 580.508,64.3743 618,65.5C 651.562,65.5939 684.729,62.0939 717.5,55C 759.682,42.6061 801.682,29.6061 843.5,16C 902.772,-0.0378314 962.772,-3.53783 1023.5,5.5C 1024.26,6.26791 1025.26,6.76791 1026.5,7C 1030.49,7.49885 1034.49,7.66551 1038.5,7.5C 1039.5,7.5 1040.5,7.5 1041.5,7.5C 1041.5,8.16667 1041.5,8.83333 1041.5,9.5C 1038.14,8.78932 1035.8,9.95599 1034.5,13C 1040.06,16.0521 1039.72,17.0521 1033.5,16C 1036.96,19.4511 1040.96,22.1178 1045.5,24C 1053.32,27.242 1061.32,29.9087 1069.5,32C 1071,33.2515 1072.67,34.2515 1074.5,35C 1083.04,36.9381 1091.71,38.6048 1100.5,40C 1108.81,43.4883 1116.81,47.4883 1124.5,52C 1134.23,53.7463 1143.57,56.5796 1152.5,60.5C 1153.55,60.3201 1154.55,59.9867 1155.5,59.5C 1156.29,60.7701 1157.29,61.7701 1158.5,62.5C 1167.9,67.3708 1177.23,72.5374 1186.5,78C 1192.12,81.9546 1197.46,86.2879 1202.5,91C 1207.83,94 1213.17,97 1218.5,100C 1226.14,110.109 1234.14,119.942 1242.5,129.5C 1243.19,128.975 1243.69,128.308 1244,127.5C 1245.59,131.512 1247.42,135.179 1249.5,138.5C 1249.5,139.833 1249.5,141.167 1249.5,142.5C 1244.45,142.55 1239.45,142.05 1234.5,141C 1170.07,127.715 1105.41,115.715 1040.5,105C 1001.06,98.2681 961.393,96.2681 921.5,99C 911.083,100.15 900.75,101.817 890.5,104C 841.713,118.262 793.047,132.929 744.5,148C 714.302,155.6 683.635,159.933 652.5,161C 614.657,161.799 576.824,161.633 539,160.5C 471.011,163.695 403.011,166.695 335,169.5C 312.406,169.247 289.906,168.247 267.5,166.5C 265.634,163.73 262.968,162.23 259.5,162C 248.944,161.155 238.611,159.155 228.5,156C 223.623,155.106 221.956,155.272 223.5,156.5C 223.5,157.5 223.5,158.5 223.5,159.5C 220.171,159.785 217.171,159.118 214.5,157.5C 216.151,156.453 217.817,155.286 219.5,154C 208.196,148.229 196.529,143.229 184.5,139C 168.714,128.773 152.048,120.106 134.5,113C 115.184,100.823 97.5172,86.4899 81.5,70C 66.2165,59.0509 51.2165,47.7175 36.5,36C 28.809,27.3103 20.809,18.9769 12.5,11C 10.3435,10.9219 8.34348,10.7552 6.5,10.5C 5.39612,9.36872 5.72945,8.53539 7.5,8C 5.82562,4.48129 3.15895,2.31462 -0.5,1.5C -0.5,0.833333 -0.5,0.166667 -0.5,-0.5 Z"/></g>
<g><path style="opacity:0.969" fill="#92323e" d="M 1023.5,5.5 C 1028.71,5.60844 1033.71,6.2751 1038.5,7.5C 1034.49,7.66551 1030.49,7.49885 1026.5,7C 1025.26,6.76791 1024.26,6.26791 1023.5,5.5 Z"/></g>
<g><path style="opacity:0.671" fill="#732b2e" d="M 1041.5,7.5 C 1047.69,8.1431 1053.69,9.1431 1059.5,10.5C 1055.14,10.4135 1050.81,10.0802 1046.5,9.5C 1044.83,9.5 1043.17,9.5 1041.5,9.5C 1041.5,8.83333 1041.5,8.16667 1041.5,7.5 Z"/></g>
<g><path style="opacity:1" fill="#942934" d="M 1046.5,9.5 C 1050.81,10.0802 1055.14,10.4135 1059.5,10.5C 1070.08,11.4308 1080.41,13.0975 1090.5,15.5C 1075.72,13.622 1061.05,11.9554 1046.5,10.5C 1046.5,10.1667 1046.5,9.83333 1046.5,9.5 Z"/></g>
<g><path style="opacity:1" fill="#ac182f" d="M 1046.5,10.5 C 1061.05,11.9554 1075.72,13.622 1090.5,15.5C 1098.64,16.1902 1106.64,17.5235 1114.5,19.5C 1116.8,23.9029 1120.47,26.0696 1125.5,26C 1124.83,27 1124.17,28 1123.5,29C 1116.93,28.9903 1110.43,28.1569 1104,26.5C 1102.93,26.528 1102.1,26.8614 1101.5,27.5C 1097.92,27.0804 1094.25,26.9138 1090.5,27C 1088.5,26.3333 1086.5,25.6667 1084.5,25C 1084.83,24.6667 1085.17,24.3333 1085.5,24C 1083.91,23.1376 1082.25,22.4709 1080.5,22C 1080.83,21.6667 1081.17,21.3333 1081.5,21C 1079.05,20.7105 1076.71,20.0438 1074.5,19C 1069.49,18.918 1064.49,18.918 1059.5,19C 1057.61,18.0266 1055.61,17.3599 1053.5,17C 1052.96,14.8913 1051.96,14.3913 1050.5,15.5C 1048.22,14.7868 1045.89,14.2868 1043.5,14C 1042.66,12.9887 1042.33,11.8221 1042.5,10.5C 1043.83,10.5 1045.17,10.5 1046.5,10.5 Z"/></g>
<g><path style="opacity:1" fill="#b01433" d="M 1114.5,19.5 C 1116.9,19.448 1119.24,19.7814 1121.5,20.5C 1122.64,22.2132 1124.3,22.8799 1126.5,22.5C 1126.28,23.675 1126.61,24.675 1127.5,25.5C 1133.76,28.7526 1140.42,30.2526 1147.5,30C 1158.2,34.0923 1169.2,37.0923 1180.5,39C 1182.22,40.5272 1184.22,41.5272 1186.5,42C 1190.56,42.3404 1194.56,43.0071 1198.5,44C 1199.53,45.6268 1200.87,46.7934 1202.5,47.5C 1203.05,50.0896 1204.38,50.7563 1206.5,49.5C 1209.89,50.0883 1212.89,51.4216 1215.5,53.5C 1218.35,52.1094 1221.01,52.4427 1223.5,54.5C 1226.41,53.7379 1229.24,52.7379 1232,51.5C 1235.28,52.3302 1235.78,53.6636 1233.5,55.5C 1233.83,55.8333 1234.17,56.1667 1234.5,56.5C 1235.5,55.8333 1236.5,55.1667 1237.5,54.5C 1240.02,57.0929 1242.52,57.0929 1245,54.5C 1245.92,56.0344 1246.42,57.701 1246.5,59.5C 1246.05,63.5378 1245.38,67.5378 1244.5,71.5C 1243.02,70.5197 1241.69,69.353 1240.5,68C 1242.03,62.4575 1240.37,61.2908 1235.5,64.5C 1228.22,65.1425 1221.38,65.1425 1215,64.5C 1210.01,65.0204 1205.84,66.0204 1202.5,67.5C 1201.83,67.5 1201.17,67.5 1200.5,67.5C 1200.37,66.6236 1200.7,65.9569 1201.5,65.5C 1204.07,64.3657 1206.74,63.5323 1209.5,63C 1209.17,62.6667 1208.83,62.3333 1208.5,62C 1203.47,60.9717 1198.47,59.8051 1193.5,58.5C 1187.65,53.716 1180.98,51.8827 1173.5,53C 1165.88,49.3032 1158.04,46.1366 1150,43.5C 1149,43.8333 1148,44.1667 1147,44.5C 1144.37,43.3444 1141.7,42.3444 1139,41.5C 1138.59,43.7794 1137.26,45.1127 1135,45.5C 1132.8,44.9097 1130.64,44.2431 1128.5,43.5C 1127.51,41.6769 1126.18,40.1769 1124.5,39C 1121.22,38.944 1118.22,38.1107 1115.5,36.5C 1111.67,38.1453 1107.67,38.812 1103.5,38.5C 1103.59,36.323 1104.25,34.323 1105.5,32.5C 1103.07,31.6399 1101.74,29.9732 1101.5,27.5C 1102.1,26.8614 1102.93,26.528 1104,26.5C 1110.43,28.1569 1116.93,28.9903 1123.5,29C 1124.17,28 1124.83,27 1125.5,26C 1120.47,26.0696 1116.8,23.9029 1114.5,19.5 Z"/></g>
<g><path style="opacity:1" fill="#a9162e" d="M 1121.5,20.5 C 1144.38,24.3445 1167.05,28.6778 1189.5,33.5C 1186.48,33.804 1183.48,34.304 1180.5,35C 1189.85,38.5869 1199.51,40.7536 1209.5,41.5C 1211.28,42.6005 1213.28,43.4338 1215.5,44C 1211.8,47.7362 1207.47,48.9029 1202.5,47.5C 1200.87,46.7934 1199.53,45.6268 1198.5,44C 1194.56,43.0071 1190.56,42.3404 1186.5,42C 1184.22,41.5272 1182.22,40.5272 1180.5,39C 1169.2,37.0923 1158.2,34.0923 1147.5,30C 1140.42,30.2526 1133.76,28.7526 1127.5,25.5C 1126.61,24.675 1126.28,23.675 1126.5,22.5C 1124.3,22.8799 1122.64,22.2132 1121.5,20.5 Z"/></g>
<g><path style="opacity:1" fill="#a41226" d="M 1189.5,33.5 C 1207.74,36.5649 1225.74,40.2315 1243.5,44.5C 1237.49,44.6662 1231.49,44.4995 1225.5,44C 1220.21,42.8419 1214.87,42.0085 1209.5,41.5C 1199.51,40.7536 1189.85,38.5869 1180.5,35C 1183.48,34.304 1186.48,33.804 1189.5,33.5 Z"/></g>
<g><path style="opacity:1" fill="#ab1333" d="M 1041.5,9.5 C 1043.17,9.5 1044.83,9.5 1046.5,9.5C 1046.5,9.83333 1046.5,10.1667 1046.5,10.5C 1045.17,10.5 1043.83,10.5 1042.5,10.5C 1042.33,11.8221 1042.66,12.9887 1043.5,14C 1045.89,14.2868 1048.22,14.7868 1050.5,15.5C 1051.96,14.3913 1052.96,14.8913 1053.5,17C 1055.61,17.3599 1057.61,18.0266 1059.5,19C 1064.49,18.918 1069.49,18.918 1074.5,19C 1076.71,20.0438 1079.05,20.7105 1081.5,21C 1081.17,21.3333 1080.83,21.6667 1080.5,22C 1082.25,22.4709 1083.91,23.1376 1085.5,24C 1085.17,24.3333 1084.83,24.6667 1084.5,25C 1086.5,25.6667 1088.5,26.3333 1090.5,27C 1094.25,26.9138 1097.92,27.0804 1101.5,27.5C 1101.74,29.9732 1103.07,31.6399 1105.5,32.5C 1104.25,34.323 1103.59,36.323 1103.5,38.5C 1107.67,38.812 1111.67,38.1453 1115.5,36.5C 1118.22,38.1107 1121.22,38.944 1124.5,39C 1126.18,40.1769 1127.51,41.6769 1128.5,43.5C 1130.64,44.2431 1132.8,44.9097 1135,45.5C 1137.26,45.1127 1138.59,43.7794 1139,41.5C 1141.7,42.3444 1144.37,43.3444 1147,44.5C 1148,44.1667 1149,43.8333 1150,43.5C 1158.04,46.1366 1165.88,49.3032 1173.5,53C 1180.98,51.8827 1187.65,53.716 1193.5,58.5C 1198.47,59.8051 1203.47,60.9717 1208.5,62C 1208.83,62.3333 1209.17,62.6667 1209.5,63C 1206.74,63.5323 1204.07,64.3657 1201.5,65.5C 1200.7,65.9569 1200.37,66.6236 1200.5,67.5C 1193.68,66.1392 1186.84,64.8059 1180,63.5C 1177.43,63.2688 1174.76,63.6021 1172,64.5C 1168.73,63.7998 1165.57,62.7998 1162.5,61.5C 1161.15,61.8457 1159.82,62.179 1158.5,62.5C 1157.29,61.7701 1156.29,60.7701 1155.5,59.5C 1154.55,59.9867 1153.55,60.3201 1152.5,60.5C 1143.57,56.5796 1134.23,53.7463 1124.5,52C 1116.81,47.4883 1108.81,43.4883 1100.5,40C 1091.71,38.6048 1083.04,36.9381 1074.5,35C 1072.67,34.2515 1071,33.2515 1069.5,32C 1061.32,29.9087 1053.32,27.242 1045.5,24C 1040.96,22.1178 1036.96,19.4511 1033.5,16C 1039.72,17.0521 1040.06,16.0521 1034.5,13C 1035.8,9.95599 1038.14,8.78932 1041.5,9.5 Z"/></g>
<g><path style="opacity:1" fill="#aa0e2e" d="M 83.5,119.5 C 81.4086,119.318 79.4086,119.652 77.5,120.5C 76.5,120 75.5,119.5 74.5,119C 69.5,118.667 64.5,118.333 59.5,118C 60.8146,116.605 60.4812,115.605 58.5,115C 55.5,114.667 52.5,114.333 49.5,114C 50.1667,113.333 50.8333,112.667 51.5,112C 41.8618,110.237 32.1951,108.737 22.5,107.5C 19.6027,106.871 16.936,105.871 14.5,104.5C 19.7209,105.658 25.0543,106.658 30.5,107.5C 31.2508,106.624 31.7508,105.624 32,104.5C 33.6667,105.167 35.3333,105.833 37,106.5C 38.9115,105.555 40.9115,105.555 43,106.5C 47.903,103.992 53.0697,103.158 58.5,104C 59.3366,105.011 59.67,106.178 59.5,107.5C 58.325,107.281 57.325,107.614 56.5,108.5C 57.6667,110.167 58.8333,111.833 60,113.5C 63.4498,112.072 66.9498,110.738 70.5,109.5C 72.2234,110.552 73.8901,110.552 75.5,109.5C 76.1924,110.025 76.6924,110.692 77,111.5C 78.8259,109.926 80.9925,109.093 83.5,109C 77.4727,108.573 71.4727,107.907 65.5,107C 65.0426,106.586 64.7093,106.086 64.5,105.5C 68.569,102.236 73.2357,100.736 78.5,101C 74.1794,100.501 69.8461,100.334 65.5,100.5C 65.8916,97.8543 65.8916,95.3543 65.5,93C 63.567,92.7489 61.7337,92.2489 60,91.5C 54.8163,94.4419 49.9829,93.9419 45.5,90C 48.8163,88.7488 49.1496,87.0821 46.5,85C 41.1358,84.8295 35.8025,84.3295 30.5,83.5C 30.9767,82.5224 31.6433,81.6891 32.5,81C 36.1667,81.1667 39.8333,81.3333 43.5,81.5C 48.5986,79.2054 48.2653,77.5387 42.5,76.5C 38.7904,77.5141 35.1237,77.5141 31.5,76.5C 30.1054,73.4516 28.4387,70.6183 26.5,68C 26.8443,66.6349 27.5109,65.4682 28.5,64.5C 27.316,62.9539 26.316,61.2873 25.5,59.5C 23.4602,61.177 21.4602,62.8437 19.5,64.5C 23.0218,65.8306 23.3552,67.6639 20.5,70C 18.5,70.3333 16.5,70.6667 14.5,71C 15.1667,71.3333 15.8333,71.6667 16.5,72C 13.9925,72.0929 11.8259,72.9262 10,74.5C 9.58605,74.0426 9.08605,73.7093 8.5,73.5C 7.27388,76.016 5.77388,78.3493 4,80.5C 2.54912,80.7358 1.04912,80.7358 -0.5,80.5C -0.5,67.8333 -0.5,55.1667 -0.5,42.5C 0.833333,42.5 2.16667,42.5 3.5,42.5C 4.44376,45.7 4.44376,48.7 3.5,51.5C 4.93185,55.0133 5.76518,58.68 6,62.5C 7.73558,58.1379 10.7356,56.4712 15,57.5C 19.251,55.8794 20.4177,53.0461 18.5,49C 19.1667,47.6667 20.1667,46.6667 21.5,46C 20.7203,44.927 20.887,43.7604 22,42.5C 23.3333,41.8333 24.6667,41.1667 26,40.5C 27.28,43.8893 29.4467,46.5559 32.5,48.5C 27.0766,51.6259 27.5766,53.6259 34,54.5C 36.3331,54.4168 38.1665,53.4168 39.5,51.5C 44.5103,55.7129 49.177,59.5462 53.5,63C 55.4406,63.7429 57.2739,63.5762 59,62.5C 59.5908,63.4835 59.2575,64.1501 58,64.5C 55.3297,64.8693 52.8297,65.3693 50.5,66C 49.1667,66.6667 49.1667,67.3333 50.5,68C 56.2446,68.039 61.5779,69.539 66.5,72.5C 67.2621,73.6283 67.9288,74.7949 68.5,76C 71.5,76.3333 74.5,76.6667 77.5,77C 77.952,78.6124 79.2853,79.6124 81.5,80C 76.1375,81.0601 70.8041,82.2268 65.5,83.5C 69.7127,84.1945 73.8794,84.8612 78,85.5C 78.3333,85.1667 78.6667,84.8333 79,84.5C 81.456,85.5742 83.956,86.5742 86.5,87.5C 81.2706,88.9236 75.9372,89.7569 70.5,90C 71.7659,90.3095 72.9326,90.8095 74,91.5C 75.0617,90.9032 76.2284,90.5698 77.5,90.5C 82.7825,91.6565 88.1159,92.4898 93.5,93C 95.4812,93.6054 95.8146,94.6054 94.5,96C 82.3024,97.3745 82.6357,98.8745 95.5,100.5C 97.306,99.1413 98.806,99.4746 100,101.5C 100.414,101.043 100.914,100.709 101.5,100.5C 103.385,101.609 105.385,102.443 107.5,103C 101.167,103.333 94.8333,103.667 88.5,104C 87.3279,104.419 86.3279,105.085 85.5,106C 93.8486,107.04 102.182,108.206 110.5,109.5C 111.025,110.192 111.692,110.692 112.5,111C 109.499,110.906 107.499,112.239 106.5,115C 108.569,115.324 108.902,116.158 107.5,117.5C 104.934,118.547 102.267,119.214 99.5,119.5C 94.2595,119.18 88.9262,119.18 83.5,119.5 Z"/></g>
<g><path style="opacity:1" fill="#b00d2d" d="M 14.5,104.5 C 9.85578,103.401 5.52245,101.734 1.5,99.5C 4.11279,98.5651 6.77946,98.3985 9.5,99C 15.3112,101.549 21.3112,103.382 27.5,104.5C 27.2189,102.037 26.2189,99.8705 24.5,98C 17.5,94.3333 10.5,90.6667 3.5,87C 2.20677,86.51 0.873441,86.3433 -0.5,86.5C -0.5,84.5 -0.5,82.5 -0.5,80.5C 1.04912,80.7358 2.54912,80.7358 4,80.5C 5.77388,78.3493 7.27388,76.016 8.5,73.5C 9.08605,73.7093 9.58605,74.0426 10,74.5C 11.8259,72.9262 13.9925,72.0929 16.5,72C 15.8333,71.6667 15.1667,71.3333 14.5,71C 16.5,70.6667 18.5,70.3333 20.5,70C 23.3552,67.6639 23.0218,65.8306 19.5,64.5C 21.4602,62.8437 23.4602,61.177 25.5,59.5C 26.316,61.2873 27.316,62.9539 28.5,64.5C 27.5109,65.4682 26.8443,66.6349 26.5,68C 28.4387,70.6183 30.1054,73.4516 31.5,76.5C 35.1237,77.5141 38.7904,77.5141 42.5,76.5C 48.2653,77.5387 48.5986,79.2054 43.5,81.5C 39.8333,81.3333 36.1667,81.1667 32.5,81C 31.6433,81.6891 30.9767,82.5224 30.5,83.5C 35.8025,84.3295 41.1358,84.8295 46.5,85C 49.1496,87.0821 48.8163,88.7488 45.5,90C 49.9829,93.9419 54.8163,94.4419 60,91.5C 61.7337,92.2489 63.567,92.7489 65.5,93C 65.8916,95.3543 65.8916,97.8543 65.5,100.5C 69.8461,100.334 74.1794,100.501 78.5,101C 73.2357,100.736 68.569,102.236 64.5,105.5C 64.7093,106.086 65.0426,106.586 65.5,107C 71.4727,107.907 77.4727,108.573 83.5,109C 80.9925,109.093 78.8259,109.926 77,111.5C 76.6924,110.692 76.1924,110.025 75.5,109.5C 73.8901,110.552 72.2234,110.552 70.5,109.5C 66.9498,110.738 63.4498,112.072 60,113.5C 58.8333,111.833 57.6667,110.167 56.5,108.5C 57.325,107.614 58.325,107.281 59.5,107.5C 59.67,106.178 59.3366,105.011 58.5,104C 53.0697,103.158 47.903,103.992 43,106.5C 40.9115,105.555 38.9115,105.555 37,106.5C 35.3333,105.833 33.6667,105.167 32,104.5C 31.7508,105.624 31.2508,106.624 30.5,107.5C 25.0543,106.658 19.7209,105.658 14.5,104.5 Z"/></g>
<g><path style="opacity:1" fill="#b11230" d="M 1209.5,41.5 C 1214.87,42.0085 1220.21,42.8419 1225.5,44C 1231.49,44.4995 1237.49,44.6662 1243.5,44.5C 1245.62,44.3253 1247.62,44.6586 1249.5,45.5C 1249.5,62.5 1249.5,79.5 1249.5,96.5C 1248.09,94.1327 1246.75,91.6327 1245.5,89C 1246.89,87.2605 1247.56,85.2605 1247.5,83C 1246.56,80.1137 1246.56,77.2804 1247.5,74.5C 1247.19,73.6919 1246.69,73.0253 1246,72.5C 1245.67,75.1667 1245.33,77.8333 1245,80.5C 1244.59,80.9574 1244.09,81.2907 1243.5,81.5C 1240.8,79.738 1237.8,78.738 1234.5,78.5C 1230.89,79.6518 1227.23,80.6518 1223.5,81.5C 1221.06,80.2331 1218.72,78.7331 1216.5,77C 1213.12,76.5483 1209.79,75.8816 1206.5,75C 1205.01,72.5255 1203.68,70.0255 1202.5,67.5C 1205.84,66.0204 1210.01,65.0204 1215,64.5C 1221.38,65.1425 1228.22,65.1425 1235.5,64.5C 1240.37,61.2908 1242.03,62.4575 1240.5,68C 1241.69,69.353 1243.02,70.5197 1244.5,71.5C 1245.38,67.5378 1246.05,63.5378 1246.5,59.5C 1246.42,57.701 1245.92,56.0344 1245,54.5C 1242.52,57.0929 1240.02,57.0929 1237.5,54.5C 1236.5,55.1667 1235.5,55.8333 1234.5,56.5C 1234.17,56.1667 1233.83,55.8333 1233.5,55.5C 1235.78,53.6636 1235.28,52.3302 1232,51.5C 1229.24,52.7379 1226.41,53.7379 1223.5,54.5C 1221.01,52.4427 1218.35,52.1094 1215.5,53.5C 1212.89,51.4216 1209.89,50.0883 1206.5,49.5C 1204.38,50.7563 1203.05,50.0896 1202.5,47.5C 1207.47,48.9029 1211.8,47.7362 1215.5,44C 1213.28,43.4338 1211.28,42.6005 1209.5,41.5 Z"/></g>
<g><path style="opacity:1" fill="#a81231" d="M 1200.5,67.5 C 1201.17,67.5 1201.83,67.5 1202.5,67.5C 1203.68,70.0255 1205.01,72.5255 1206.5,75C 1209.79,75.8816 1213.12,76.5483 1216.5,77C 1218.72,78.7331 1221.06,80.2331 1223.5,81.5C 1227.23,80.6518 1230.89,79.6518 1234.5,78.5C 1237.8,78.738 1240.8,79.738 1243.5,81.5C 1244.09,81.2907 1244.59,80.9574 1245,80.5C 1245.33,77.8333 1245.67,75.1667 1246,72.5C 1246.69,73.0253 1247.19,73.6919 1247.5,74.5C 1246.56,77.2804 1246.56,80.1137 1247.5,83C 1247.56,85.2605 1246.89,87.2605 1245.5,89C 1246.75,91.6327 1248.09,94.1327 1249.5,96.5C 1249.5,110.5 1249.5,124.5 1249.5,138.5C 1247.42,135.179 1245.59,131.512 1244,127.5C 1243.69,128.308 1243.19,128.975 1242.5,129.5C 1234.14,119.942 1226.14,110.109 1218.5,100C 1213.17,97 1207.83,94 1202.5,91C 1197.46,86.2879 1192.12,81.9546 1186.5,78C 1177.23,72.5374 1167.9,67.3708 1158.5,62.5C 1159.82,62.179 1161.15,61.8457 1162.5,61.5C 1165.57,62.7998 1168.73,63.7998 1172,64.5C 1174.76,63.6021 1177.43,63.2688 1180,63.5C 1186.84,64.8059 1193.68,66.1392 1200.5,67.5 Z"/></g>
<g><path style="opacity:1" fill="#b70a2a" d="M -0.5,86.5 C 0.873441,86.3433 2.20677,86.51 3.5,87C 10.5,90.6667 17.5,94.3333 24.5,98C 26.2189,99.8705 27.2189,102.037 27.5,104.5C 21.3112,103.382 15.3112,101.549 9.5,99C 6.77946,98.3985 4.11279,98.5651 1.5,99.5C 0.833333,99.5 0.166667,99.5 -0.5,99.5C -0.5,95.1667 -0.5,90.8333 -0.5,86.5 Z"/></g>
<g><path style="opacity:1" fill="#a61031" d="M -0.5,1.5 C 3.15895,2.31462 5.82562,4.48129 7.5,8C 5.72945,8.53539 5.39612,9.36872 6.5,10.5C 8.34348,10.7552 10.3435,10.9219 12.5,11C 20.809,18.9769 28.809,27.3103 36.5,36C 51.2165,47.7175 66.2165,59.0509 81.5,70C 97.5172,86.4899 115.184,100.823 134.5,113C 152.048,120.106 168.714,128.773 184.5,139C 196.529,143.229 208.196,148.229 219.5,154C 217.817,155.286 216.151,156.453 214.5,157.5C 209.327,156.376 204.16,155.376 199,154.5C 198.586,154.957 198.086,155.291 197.5,155.5C 195.869,153.703 193.869,152.536 191.5,152C 186.167,151.667 180.833,151.333 175.5,151C 172.294,147.013 168.627,146.179 164.5,148.5C 161.795,147.964 159.795,146.464 158.5,144C 151.841,143.12 145.174,142.286 138.5,141.5C 137.69,137.265 135.357,135.932 131.5,137.5C 130.354,136.855 129.354,136.022 128.5,135C 124.767,134.934 121.267,134.101 118,132.5C 115.047,133.751 112.047,133.751 109,132.5C 107.946,131.518 107.446,130.351 107.5,129C 105.231,128.242 103.064,128.409 101,129.5C 99.4472,127.306 97.2805,126.14 94.5,126C 94.8333,125.667 95.1667,125.333 95.5,125C 91.1958,124.969 87.1958,123.969 83.5,122C 82.4019,121.23 82.4019,120.397 83.5,119.5C 88.9262,119.18 94.2595,119.18 99.5,119.5C 102.267,119.214 104.934,118.547 107.5,117.5C 108.902,116.158 108.569,115.324 106.5,115C 107.499,112.239 109.499,110.906 112.5,111C 111.692,110.692 111.025,110.192 110.5,109.5C 102.182,108.206 93.8486,107.04 85.5,106C 86.3279,105.085 87.3279,104.419 88.5,104C 94.8333,103.667 101.167,103.333 107.5,103C 105.385,102.443 103.385,101.609 101.5,100.5C 100.914,100.709 100.414,101.043 100,101.5C 98.806,99.4746 97.306,99.1413 95.5,100.5C 82.6357,98.8745 82.3024,97.3745 94.5,96C 95.8146,94.6054 95.4812,93.6054 93.5,93C 88.1159,92.4898 82.7825,91.6565 77.5,90.5C 76.2284,90.5698 75.0617,90.9032 74,91.5C 72.9326,90.8095 71.7659,90.3095 70.5,90C 75.9372,89.7569 81.2706,88.9236 86.5,87.5C 83.956,86.5742 81.456,85.5742 79,84.5C 78.6667,84.8333 78.3333,85.1667 78,85.5C 73.8794,84.8612 69.7127,84.1945 65.5,83.5C 70.8041,82.2268 76.1375,81.0601 81.5,80C 79.2853,79.6124 77.952,78.6124 77.5,77C 74.5,76.6667 71.5,76.3333 68.5,76C 67.9288,74.7949 67.2621,73.6283 66.5,72.5C 61.5779,69.539 56.2446,68.039 50.5,68C 49.1667,67.3333 49.1667,66.6667 50.5,66C 52.8297,65.3693 55.3297,64.8693 58,64.5C 59.2575,64.1501 59.5908,63.4835 59,62.5C 57.2739,63.5762 55.4406,63.7429 53.5,63C 49.177,59.5462 44.5103,55.7129 39.5,51.5C 38.1665,53.4168 36.3331,54.4168 34,54.5C 27.5766,53.6259 27.0766,51.6259 32.5,48.5C 29.4467,46.5559 27.28,43.8893 26,40.5C 24.6667,41.1667 23.3333,41.8333 22,42.5C 20.887,43.7604 20.7203,44.927 21.5,46C 20.1667,46.6667 19.1667,47.6667 18.5,49C 20.4177,53.0461 19.251,55.8794 15,57.5C 10.7356,56.4712 7.73558,58.1379 6,62.5C 5.76518,58.68 4.93185,55.0133 3.5,51.5C 4.44376,48.7 4.44376,45.7 3.5,42.5C 2.16667,42.5 0.833333,42.5 -0.5,42.5C -0.5,28.8333 -0.5,15.1667 -0.5,1.5 Z"/></g>
<g><path style="opacity:1" fill="#880d26" d="M 47.5,116.5 C 53.6874,118.067 60.0208,119.4 66.5,120.5C 66.9767,121.478 67.6433,122.311 68.5,123C 77.0538,122.908 85.0538,124.908 92.5,129C 90.065,129.075 89.3984,129.908 90.5,131.5C 75.8666,127.068 61.5332,122.068 47.5,116.5 Z"/></g>
<g><path style="opacity:1" fill="#a0112f" d="M 22.5,107.5 C 32.1951,108.737 41.8618,110.237 51.5,112C 50.8333,112.667 50.1667,113.333 49.5,114C 52.5,114.333 55.5,114.667 58.5,115C 60.4812,115.605 60.8146,116.605 59.5,118C 64.5,118.333 69.5,118.667 74.5,119C 75.5,119.5 76.5,120 77.5,120.5C 79.4086,119.652 81.4086,119.318 83.5,119.5C 82.4019,120.397 82.4019,121.23 83.5,122C 87.1958,123.969 91.1958,124.969 95.5,125C 95.1667,125.333 94.8333,125.667 94.5,126C 97.2805,126.14 99.4472,127.306 101,129.5C 103.064,128.409 105.231,128.242 107.5,129C 107.446,130.351 107.946,131.518 109,132.5C 112.047,133.751 115.047,133.751 118,132.5C 121.267,134.101 124.767,134.934 128.5,135C 129.354,136.022 130.354,136.855 131.5,137.5C 135.357,135.932 137.69,137.265 138.5,141.5C 145.174,142.286 151.841,143.12 158.5,144C 159.795,146.464 161.795,147.964 164.5,148.5C 168.627,146.179 172.294,147.013 175.5,151C 180.833,151.333 186.167,151.667 191.5,152C 193.869,152.536 195.869,153.703 197.5,155.5C 198.086,155.291 198.586,154.957 199,154.5C 204.16,155.376 209.327,156.376 214.5,157.5C 217.171,159.118 220.171,159.785 223.5,159.5C 223.5,158.5 223.5,157.5 223.5,156.5C 221.956,155.272 223.623,155.106 228.5,156C 238.611,159.155 248.944,161.155 259.5,162C 262.968,162.23 265.634,163.73 267.5,166.5C 247.741,165.379 228.074,163.379 208.5,160.5C 208.804,159.85 209.137,159.183 209.5,158.5C 203.293,156.912 196.96,156.079 190.5,156C 189.328,155.581 188.328,154.915 187.5,154C 182.511,153.501 177.511,153.334 172.5,153.5C 172.167,153.5 171.833,153.5 171.5,153.5C 163.044,149.583 154.044,147.083 144.5,146C 140.86,144.231 137.194,142.565 133.5,141C 125.771,139.636 118.104,137.97 110.5,136C 109.328,135.581 108.328,134.915 107.5,134C 101.992,133.633 96.6588,132.8 91.5,131.5C 91.1667,131.5 90.8333,131.5 90.5,131.5C 89.3984,129.908 90.065,129.075 92.5,129C 85.0538,124.908 77.0538,122.908 68.5,123C 67.6433,122.311 66.9767,121.478 66.5,120.5C 60.0208,119.4 53.6874,118.067 47.5,116.5C 38.875,114.071 30.5417,111.071 22.5,107.5 Z"/></g>
<g><path style="opacity:0.951" fill="#800e24" d="M 91.5,131.5 C 96.6588,132.8 101.992,133.633 107.5,134C 108.328,134.915 109.328,135.581 110.5,136C 118.104,137.97 125.771,139.636 133.5,141C 137.194,142.565 140.86,144.231 144.5,146C 154.044,147.083 163.044,149.583 171.5,153.5C 144.233,147.961 117.566,140.627 91.5,131.5 Z"/></g>
<g><path style="opacity:1" fill="#911531" d="M 172.5,153.5 C 177.511,153.334 182.511,153.501 187.5,154C 188.328,154.915 189.328,155.581 190.5,156C 196.96,156.079 203.293,156.912 209.5,158.5C 209.137,159.183 208.804,159.85 208.5,160.5C 196.264,158.797 184.264,156.464 172.5,153.5 Z"/></g>
</svg>
