<svg id="visual" viewBox="0 0 900 80" width="900" height="80" xmlns="http://www.w3.org/2000/svg" xmlns:xlink="http://www.w3.org/1999/xlink" version="1.1"><path d="M0 20L10 20C20 20 40 20 60 19C80 18 100 16 120 15.8C140 15.7 160 17.3 180 19.2C200 21 220 23 240 24.7C260 26.3 280 27.7 300 26.8C320 26 340 23 360 20.5C380 18 400 16 420 16.8C440 17.7 460 21.3 480 23.7C500 26 520 27 540 26.2C560 25.3 580 22.7 600 21.8C620 21 640 22 660 22C680 22 700 21 720 19C740 17 760 14 780 12.5C800 11 820 11 840 12.8C860 14.7 880 18.3 890 20.2L900 22" fill="none" stroke-linecap="round" stroke-linejoin="miter" stroke="#0066FF" stroke-width="2"></path></svg>