<svg id="visual" viewBox="0 0 900 350" width="100%"
 height="30" xmlns="http://www.w3.org/2000/svg"
  xmlns:xlink="http://www.w3.org/1999/xlink"
   version="1.1">
   <path d="M0 286L21.5 287C43 288 86 290 128.8 284.8C171.7
    279.7 214.3 267.3 257.2 266.3C300 265.3 343 275.7 385.8
    271.3C428.7 267 471.3 248 514.2 248.2C557 248.3 600 267.7
     642.8 276.2C685.7 284.7 728.3 282.3 771.2 282.8C814 283.3
      857 286.7 878.5 288.3L900 290L900 351L878.5 351C857 351
       814 351 771.2 351C728.3 351 685.7 351 642.8 351C600 351 557 351
        514.2 351C471.3 351 428.7 351 385.8 351C343 351 300 351 257.2 351C214.3
         351 171.7 351 128.8 351C86 351 43 351 21.5 351L0 351Z"
         fill="#161617" stroke-linecap="round" stroke-linejoin="miter"></path></svg>
