<?xml version="1.0" standalone="no"?>
<!DOCTYPE svg PUBLIC "-//W3C//DTD SVG 20010904//EN"
 "http://www.w3.org/TR/2001/REC-SVG-20010904/DTD/svg10.dtd">
<svg version="1.0" xmlns="http://www.w3.org/2000/svg"
 width="300.000000pt" height="300.000000pt" viewBox="0 0 300.000000 300.000000"
 preserveAspectRatio="xMidYMid meet">
<metadata>
Created by potrace 1.10, written by Peter Selinger 2001-2011
</metadata>
<g transform="translate(0.000000,300.000000) scale(0.100000,-0.100000)"
fill="#006DCB" stroke="none">
<path d="M557 2464 c-227 -49 -428 -232 -498 -454 -28 -88 -44 -230 -35 -312
l8 -68 688 0 688 0 7 74 c9 89 0 176 -26 274 -65 244 -262 438 -494 487 -88
18 -249 18 -338 -1z"/>
<path d="M2100 2464 c-228 -49 -426 -247 -492 -491 -21 -80 -31 -287 -16 -325
7 -17 49 -18 692 -18 l684 0 7 66 c14 123 -16 297 -67 398 -97 191 -274 331
-470 370 -94 19 -250 19 -338 0z m252 -298 c80 -17 116 -35 170 -84 37 -34 98
-139 98 -169 0 -10 -76 -13 -345 -13 -269 0 -345 3 -345 13 0 26 59 134 91
166 51 51 160 96 244 100 11 0 50 -6 87 -13z"/>


<path fill="#AB0078" d="M130 1466 c0 -16 69 -163 106 -225 234 -395 622 -652 1071 -712 122
-16 383 -6 493 20 360 82 669 286 877 576 57 78 131 213 162 293 l21 52 -174
0 -173 0 -12 -27 c-30 -67 -127 -196 -203 -273 -219 -218 -494 -333 -803 -332
-192 0 -336 33 -507 117 -206 102 -386 275 -500 484 l-17 31 -171 0 c-93 0
-170 -2 -170 -4z"/>
</g>
</svg>
