<?xml version="1.0" encoding="UTF-8"?>
<!DOCTYPE svg PUBLIC "-//W3C//DTD SVG 1.1//EN" "http://www.w3.org/Graphics/SVG/1.1/DTD/svg11.dtd">
<svg xmlns="http://www.w3.org/2000/svg" version="1.1" width="382px" height="366px" style="shape-rendering:geometricPrecision; text-rendering:geometricPrecision; image-rendering:optimizeQuality; fill-rule:evenodd; clip-rule:evenodd" xmlns:xlink="http://www.w3.org/1999/xlink">
<g><path style="opacity:1" fill="#00000000" d="M -0.5,-0.5 C 126.833,-0.5 254.167,-0.5 381.5,-0.5C 381.5,121.5 381.5,243.5 381.5,365.5C 254.167,365.5 126.833,365.5 -0.5,365.5C -0.5,243.5 -0.5,121.5 -0.5,-0.5 Z"/></g>
<g><path style="opacity:1" fill="#00000000" d="M 236.5,12.5 C 213.906,9.50372 191.239,8.83706 168.5,10.5C 169.871,9.21317 171.705,8.5465 174,8.5C 195.209,6.28165 216.042,7.61498 236.5,12.5 Z"/></g>
<g><path style="opacity:1" fill="#00000000" d="M 262.5,19.5 C 254.099,16.2329 245.433,13.8996 236.5,12.5C 216.042,7.61498 195.209,6.28165 174,8.5C 171.705,8.5465 169.871,9.21317 168.5,10.5C 166.167,10.5 163.833,10.5 161.5,10.5C 163.385,8.68851 165.719,7.52184 168.5,7C 189.743,4.79012 210.91,5.29012 232,8.5C 232.772,8.3552 233.439,8.02186 234,7.5C 240.443,9.5341 246.943,11.7008 253.5,14C 255.49,15.7506 257.823,16.7506 260.5,17C 261.381,17.7083 262.047,18.5416 262.5,19.5 Z"/></g>
<g><path style="opacity:1" fill="#1fcd9f" d="M 236.5,12.5 C 245.433,13.8996 254.099,16.2329 262.5,19.5C 312.317,41.1495 346.484,77.4828 365,128.5C 366.662,136.008 368.495,143.341 370.5,150.5C 372.153,165.112 372.82,179.779 372.5,194.5C 372.5,196.5 372.5,198.5 372.5,200.5C 370.155,214.54 367.155,228.54 363.5,242.5C 347.222,283.108 320.222,314.442 282.5,336.5C 270.478,342.681 258.145,348.014 245.5,352.5C 244.167,352.5 242.833,352.5 241.5,352.5C 220.104,357.079 198.437,358.746 176.5,357.5C 173.833,356.833 171.167,356.167 168.5,355.5C 167.666,354.252 166.333,353.585 164.5,353.5C 157.996,353.835 152.329,352.002 147.5,348C 144.518,347.502 141.518,347.335 138.5,347.5C 96.4089,332.833 64.5755,305.833 43,266.5C 38.6508,258.141 35.1508,249.474 32.5,240.5C 32.1667,237.833 31.8333,235.167 31.5,232.5C 54.8357,232.333 78.169,232.5 101.5,233C 103.364,236.927 106.031,240.094 109.5,242.5C 119.449,256.947 132.116,268.447 147.5,277C 150.561,279.035 153.895,280.201 157.5,280.5C 162.096,282.698 166.763,284.698 171.5,286.5C 171.414,287.496 171.748,288.329 172.5,289C 188.832,290.972 205.165,290.972 221.5,289C 224.855,288.512 227.522,287.012 229.5,284.5C 256.473,274.59 277.307,257.257 292,232.5C 295.272,224.284 298.272,215.951 301,207.5C 301.696,204.522 302.196,201.522 302.5,198.5C 303.659,188.342 303.825,178.008 303,167.5C 302.588,162.843 301.421,158.509 299.5,154.5C 290.511,123.344 271.511,100.51 242.5,86C 235.11,83.8701 227.777,81.5368 220.5,79C 217.854,78.5026 215.187,78.3359 212.5,78.5C 212.082,77.7784 211.416,77.2784 210.5,77C 193.058,75.3491 176.058,77.3491 159.5,83C 156.367,83.8596 153.7,85.3596 151.5,87.5C 130.315,98.0165 113.982,113.683 102.5,134.5C 78.5,135.833 54.5,135.833 30.5,134.5C 30.0688,133.707 29.7355,132.873 29.5,132C 30.1608,129.536 30.6608,127.036 31,124.5C 34.9641,114.572 39.4641,104.906 44.5,95.5C 49.2181,87.4691 54.3847,79.8024 60,72.5C 81.5469,47.2587 107.714,28.7587 138.5,17C 146.037,14.2232 153.703,12.0566 161.5,10.5C 163.833,10.5 166.167,10.5 168.5,10.5C 191.239,8.83706 213.906,9.50372 236.5,12.5 Z"/></g>
<g><path style="opacity:1" fill="#00000000" d="M 212.5,78.5 C 201.813,78.168 191.146,78.5013 180.5,79.5C 180.291,80.086 179.957,80.586 179.5,81C 175.442,81.3404 171.442,82.0071 167.5,83C 166.833,83.6667 166.167,84.3333 165.5,85C 161.004,86.7454 156.338,87.5787 151.5,87.5C 153.7,85.3596 156.367,83.8596 159.5,83C 176.058,77.3491 193.058,75.3491 210.5,77C 211.416,77.2784 212.082,77.7784 212.5,78.5 Z"/></g>
<g><path style="opacity:1" fill="#00000000" d="M 370.5,150.5 C 371.469,152.663 372.302,154.996 373,157.5C 373.827,170.007 373.66,182.34 372.5,194.5C 372.82,179.779 372.153,165.112 370.5,150.5 Z"/></g>
<g><path style="opacity:1" fill="#00000000" d="M 299.5,154.5 C 301.421,158.509 302.588,162.843 303,167.5C 303.825,178.008 303.659,188.342 302.5,198.5C 302.94,183.711 301.94,169.044 299.5,154.5 Z"/></g>
<g><path style="opacity:1" fill="#00000000" d="M 12.5,151.5 C 41.8352,151.333 71.1686,151.5 100.5,152C 101.659,172.427 101.826,192.927 101,213.5C 71.5662,214.828 42.0662,214.828 12.5,213.5C 11.1677,192.804 11.1677,172.137 12.5,151.5 Z"/></g>
<g><path style="opacity:1" fill="#200f60" d="M 13.5,152.5 C 42.1667,152.5 70.8333,152.5 99.5,152.5C 99.6666,170.503 99.4999,188.503 99,206.5C 98.4169,208.002 97.5836,209.335 96.5,210.5C 69.8757,211.325 43.209,211.825 16.5,212C 15.2513,213.824 14.0847,213.657 13,211.5C 12.18,191.76 12.3467,172.093 13.5,152.5 Z"/></g>
<g><path style="opacity:1" fill="#00000000" d="M 372.5,200.5 C 372.211,207.178 371.711,213.844 371,220.5C 368.36,227.245 366.36,234.245 365,241.5C 364.617,242.056 364.117,242.389 363.5,242.5C 367.155,228.54 370.155,214.54 372.5,200.5 Z"/></g>
<g><path style="opacity:1" fill="#44c3a2" d="M 109.5,242.5 C 106.031,240.094 103.364,236.927 101.5,233C 78.169,232.5 54.8357,232.333 31.5,232.5C 31.8333,235.167 32.1667,237.833 32.5,240.5C 30.1565,237.659 29.4899,234.493 30.5,231C 54.5,230.333 78.5,230.333 102.5,231C 105.484,234.473 107.817,238.306 109.5,242.5 Z"/></g>
<g><path style="opacity:1" fill="#00000000" d="M 157.5,280.5 C 169.092,282.7 180.592,285.033 192,287.5C 202.135,286.308 212.302,285.641 222.5,285.5C 205.692,289.066 188.692,289.4 171.5,286.5C 166.763,284.698 162.096,282.698 157.5,280.5 Z"/></g>
<g><path style="opacity:1" fill="#46c7a4" d="M 229.5,284.5 C 227.522,287.012 224.855,288.512 221.5,289C 205.165,290.972 188.832,290.972 172.5,289C 171.748,288.329 171.414,287.496 171.5,286.5C 188.692,289.4 205.692,289.066 222.5,285.5C 224.806,285.007 227.139,284.674 229.5,284.5 Z"/></g>
<g><path style="opacity:1" fill="#00000000" d="M 282.5,336.5 C 280.629,338.277 279.962,340.277 280.5,342.5C 277.854,341.638 275.187,341.805 272.5,343C 263.798,347.067 254.798,350.234 245.5,352.5C 258.145,348.014 270.478,342.681 282.5,336.5 Z"/></g>
<g><path style="opacity:1" fill="#56cbab" d="M 138.5,347.5 C 141.518,347.335 144.518,347.502 147.5,348C 152.329,352.002 157.996,353.835 164.5,353.5C 166.333,353.585 167.666,354.252 168.5,355.5C 157.724,355.308 147.724,352.641 138.5,347.5 Z"/></g>
<g><path style="opacity:1" fill="#00000000" d="M 241.5,352.5 C 239.981,353.41 238.315,354.243 236.5,355C 216.472,358.546 196.472,359.379 176.5,357.5C 198.437,358.746 220.104,357.079 241.5,352.5 Z"/></g>
</svg>
