<?xml version="1.0" encoding="UTF-8"?>
<!DOCTYPE svg PUBLIC "-//W3C//DTD SVG 1.1//EN" "http://www.w3.org/Graphics/SVG/1.1/DTD/svg11.dtd">
<svg xmlns="http://www.w3.org/2000/svg" version="1.1" width="332px" height="367px" style="shape-rendering:geometricPrecision; text-rendering:geometricPrecision; image-rendering:optimizeQuality; fill-rule:evenodd; clip-rule:evenodd" xmlns:xlink="http://www.w3.org/1999/xlink">
<g><path style="opacity:1" fill="#00000000" d="M -0.5,-0.5 C 110.167,-0.5 220.833,-0.5 331.5,-0.5C 331.5,121.833 331.5,244.167 331.5,366.5C 220.833,366.5 110.167,366.5 -0.5,366.5C -0.5,244.167 -0.5,121.833 -0.5,-0.5 Z"/></g>
<g><path style="opacity:1" fill="#8e03fe" d="M 216.5,264.5 C 218.833,262.833 220.833,260.833 222.5,258.5C 256.187,224.647 289.687,190.647 323,156.5C 323.667,182.5 323.667,208.5 323,234.5C 324.122,257.073 315.955,275.239 298.5,289C 265.617,310.195 231.95,330.195 197.5,349C 187.378,353.987 176.711,356.82 165.5,357.5C 158.322,357.456 151.322,356.289 144.5,354C 105.932,334.385 68.5985,312.719 32.5,289C 22.1614,281.502 15.1614,271.669 11.5,259.5C 59.5661,208.932 108.566,159.099 158.5,110C 163.657,107.832 168.657,108.165 173.5,111C 189.681,127.347 206.014,143.514 222.5,159.5C 230.156,151.011 238.323,143.011 247,135.5C 247.667,134.833 247.667,134.167 247,133.5C 227.632,114.299 208.465,94.9653 189.5,75.5C 188.109,73.1097 186.109,71.4431 183.5,70.5C 175.329,60.1251 165.329,57.9585 153.5,64C 105.128,112.206 56.7945,160.706 8.5,209.5C 7.50209,182.338 7.16876,155.005 7.5,127.5C 7.71401,106.905 16.0473,90.4054 32.5,78C 66.6669,56.0771 101.667,35.4104 137.5,16C 143.761,13.802 150.095,11.802 156.5,10C 162.167,9.33333 167.833,9.33333 173.5,10C 181.018,11.7597 188.352,14.093 195.5,17C 230.355,36.5367 264.688,56.87 298.5,78C 306.746,84.2897 313.246,92.123 318,101.5C 318.995,104.126 319.328,106.793 319,109.5C 270.582,158.919 221.749,208.085 172.5,257C 167.833,259 163.167,259 158.5,257C 141.986,240.319 125.319,223.819 108.5,207.5C 99.3229,215.511 90.9895,224.345 83.5,234C 106.435,257.268 129.769,280.268 153.5,303C 162.339,307.851 171.006,307.517 179.5,302C 192.09,289.578 204.423,277.078 216.5,264.5 Z"/></g>
<g><path style="opacity:1" fill="#00000000" d="M 183.5,70.5 C 186.109,71.4431 188.109,73.1097 189.5,75.5C 187.833,75.5 186.167,75.5 184.5,75.5C 184.371,73.7839 184.038,72.1172 183.5,70.5 Z"/></g>
<g><path style="opacity:1" fill="#00000000" d="M 7.5,127.5 C 7.16876,155.005 7.50209,182.338 8.5,209.5C 8.44001,210.043 8.10667,210.376 7.5,210.5C 6.1706,182.67 6.1706,155.003 7.5,127.5 Z"/></g>
<g><path style="opacity:1" fill="#00000000" d="M 162.5,155.5 C 163.873,155.343 165.207,155.51 166.5,156C 174.958,163.622 183.291,171.456 191.5,179.5C 192.544,181.768 192.711,184.101 192,186.5C 183.543,195.463 174.71,203.797 165.5,211.5C 164.5,211.333 163.5,211.167 162.5,211C 155.886,203.264 148.719,196.097 141,189.5C 139.367,187.547 138.201,185.38 137.5,183C 137.667,182.167 137.833,181.333 138,180.5C 147.039,172.962 155.206,164.628 162.5,155.5 Z"/></g>
<g><path style="opacity:1" fill="#00000000" d="M 222.5,258.5 C 220.833,260.833 218.833,262.833 216.5,264.5C 215.832,259.839 217.832,257.839 222.5,258.5 Z"/></g>
</svg>
